<svg xmlns="http://www.w3.org/2000/svg" viewBox="0 0 1450 800"><defs><marker id="a" markerWidth="8" markerHeight="8" refX="7" refY="3" orient="auto"><path d="M0,0 L0,6 L7,3 z" fill="#64748b"/></marker></defs><rect width="1450" height="800" fill="white"/><g font-family="Arial,Helvetica,sans-serif"><g><rect x="30" y="40" width="330" height="130" rx="8" fill="white" stroke="#64748b" stroke-width="1.2"/><rect x="30" y="40" width="330" height="34" rx="8" fill="#dbeafe" stroke="#64748b" stroke-width="1.2"/><text x="195" y="62" text-anchor="middle" font-weight="700" font-size="13">silver.operadora</text><text x="40" y="90" font-weight="700" font-size="10">NK</text><text x="88" y="90" font-size="10.5">cd_operadora - STRING</text><text x="88" y="114" font-size="10.5">nm_razao_social - STRING</text><text x="88" y="138" font-size="10.5">nr_cnpj - STRING</text><text x="88" y="162" font-size="10.5">modalidade_operadora - STRING</text></g><g><rect x="30" y="300" width="330" height="106" rx="8" fill="white" stroke="#64748b" stroke-width="1.2"/><rect x="30" y="300" width="330" height="34" rx="8" fill="#dbeafe" stroke="#64748b" stroke-width="1.2"/><text x="195" y="322" text-anchor="middle" font-weight="700" font-size="13">silver.municipio</text><text x="40" y="350" font-weight="700" font-size="10">NK</text><text x="88" y="350" font-size="10.5">cd_municipio - STRING</text><text x="88" y="374" font-size="10.5">nm_municipio - STRING</text><text x="88" y="398" font-size="10.5">sg_uf - STRING</text></g><g><rect x="420" y="40" width="390" height="202" rx="8" fill="white" stroke="#64748b" stroke-width="1.2"/><rect x="420" y="40" width="390" height="34" rx="8" fill="#dbeafe" stroke="#64748b" stroke-width="1.2"/><text x="615" y="62" text-anchor="middle" font-weight="700" font-size="13">silver.plano</text><text x="430" y="90" font-weight="700" font-size="10">NK/FK</text><text x="478" y="90" font-size="10.5">cd_operadora - STRING</text><text x="430" y="114" font-weight="700" font-size="10">NK</text><text x="478" y="114" font-size="10.5">cd_plano - STRING</text><text x="478" y="138" font-size="10.5">tp_vigencia_plano - STRING</text><text x="478" y="162" font-size="10.5">de_contratacao_plano - STRING</text><text x="478" y="186" font-size="10.5">de_segmentacao_plano - STRING</text><text x="478" y="210" font-size="10.5">de_abrg_geografica_plano - STRING</text><text x="478" y="234" font-size="10.5">cobertura_assist_plan - STRING</text></g><g><rect x="900" y="40" width="500" height="322" rx="8" fill="white" stroke="#64748b" stroke-width="1.2"/><rect x="900" y="40" width="500" height="34" rx="8" fill="#dbeafe" stroke="#64748b" stroke-width="1.2"/><text x="1150" y="62" text-anchor="middle" font-weight="700" font-size="13">silver.beneficiario_movimento</text><text x="910" y="90" font-weight="700" font-size="10">NK</text><text x="958" y="90" font-size="10.5">id_cmpt_movel - STRING</text><text x="910" y="114" font-weight="700" font-size="10">FK</text><text x="958" y="114" font-size="10.5">cd_operadora - STRING</text><text x="910" y="138" font-weight="700" font-size="10">FK</text><text x="958" y="138" font-size="10.5">cd_municipio - STRING</text><text x="910" y="162" font-weight="700" font-size="10">FK</text><text x="958" y="162" font-size="10.5">cd_plano - STRING</text><text x="910" y="186" font-weight="700" font-size="10">NK</text><text x="958" y="186" font-size="10.5">tp_sexo - STRING</text><text x="910" y="210" font-weight="700" font-size="10">NK</text><text x="958" y="210" font-size="10.5">de_faixa_etaria - STRING</text><text x="910" y="234" font-weight="700" font-size="10">NK</text><text x="958" y="234" font-size="10.5">de_faixa_etaria_reaj - STRING</text><text x="910" y="258" font-weight="700" font-size="10">NK</text><text x="958" y="258" font-size="10.5">tipo_vinculo - STRING</text><text x="958" y="282" font-size="10.5">qt_beneficiario_ativo - BIGINT</text><text x="958" y="306" font-size="10.5">qt_beneficiario_aderido - BIGINT</text><text x="958" y="330" font-size="10.5">qt_beneficiario_cancelado - BIGINT</text><text x="958" y="354" font-size="10.5">dt_carga - DATE</text></g><g><rect x="420" y="480" width="390" height="226" rx="8" fill="white" stroke="#64748b" stroke-width="1.2"/><rect x="420" y="480" width="390" height="34" rx="8" fill="#fee2e2" stroke="#64748b" stroke-width="1.2"/><text x="615" y="502" text-anchor="middle" font-weight="700" font-size="13">silver.beneficiario_rejeitado</text><text x="478" y="530" font-size="10.5">id_cmpt_movel - STRING</text><text x="478" y="554" font-size="10.5">cd_operadora - STRING</text><text x="478" y="578" font-size="10.5">cd_municipio - STRING</text><text x="478" y="602" font-size="10.5">cd_plano - STRING</text><text x="478" y="626" font-size="10.5">tp_sexo - STRING</text><text x="478" y="650" font-size="10.5">de_faixa_etaria - STRING</text><text x="478" y="674" font-size="10.5">de_faixa_etaria_reaj - STRING</text><text x="478" y="698" font-size="10.5">tipo_vinculo - STRING</text></g><path d="M360 90 L420 90" stroke="#64748b" stroke-width="1.5" fill="none" marker-end="url(#a)"/><path d="M360 130 L900 130" stroke="#64748b" stroke-width="1.5" fill="none" marker-end="url(#a)"/><path d="M360 340 L900 240" stroke="#64748b" stroke-width="1.5" fill="none" marker-end="url(#a)"/><path d="M810 180 L900 180" stroke="#64748b" stroke-width="1.5" fill="none" marker-end="url(#a)"/><rect x="900" y="480" width="500" height="120" rx="10" fill="#f8fafc" stroke="#94a3b8"/><text x="920" y="507" font-size="12" font-weight="700">Grão lógico de beneficiario_movimento</text><text x="920" y="532" font-size="10.5">competência + operadora + município + plano + sexo + faixa etária + faixa reajuste + vínculo</text><text x="920" y="558" font-size="10.5">Dedup: ROW_NUMBER; desempate por dt_carga + SHA2 temporário.</text><text x="920" y="582" font-size="10.5">O hash não é persistido.</text></g></svg>